<svg width="37" height="20" viewBox="0 0 37 20" fill="none" xmlns="http://www.w3.org/2000/svg">
<g clip-path="url(#clip0_2003_204)">
<path d="M7.47353 6.12653C7.82241 5.99074 8.19455 5.91833 8.58064 5.91833C10.2708 5.91833 11.6818 7.31961 12.0043 9.18256L14.4 8.61227C13.8511 5.44761 11.4539 3.06506 8.58064 3.06506C7.92165 3.06506 7.29056 3.18998 6.69824 3.42172L7.47353 6.12653Z" fill="#FFCB05"/>
<path d="M4.6469 15.1896L6.26725 13.0515C5.54468 12.3038 5.08881 11.2121 5.08881 9.99546C5.08881 8.78065 5.54468 7.68895 6.26725 6.94305L4.6469 4.8031C3.41884 6.07403 2.64355 7.92974 2.64355 9.99546C2.64355 12.063 3.41884 13.9187 4.6469 15.1896" fill="#00A4E0"/>
<path d="M12.0043 10.8138C11.6802 12.675 10.2708 14.0745 8.58219 14.0745C8.19455 14.0745 7.82086 14.002 7.47353 13.8644L6.69824 16.5729C7.29056 16.8028 7.9232 16.9277 8.58219 16.9277C11.4523 16.9277 13.848 14.5488 14.4 11.3878L12.0043 10.8138Z" fill="#EF4123"/>
<path d="M16.4947 13.1402C16.4156 12.9917 16.3102 12.7545 16.2451 12.5789C15.8652 11.5506 15.8481 10.486 16.1675 9.46495C16.5195 8.34429 17.1925 7.48795 18.0624 7.04982C19.1555 6.50125 20.3634 6.60807 21.4116 7.33406C22.0768 7.77943 22.5482 8.4674 22.9064 9.44142C22.9513 9.56634 22.9916 9.6985 23.032 9.81256L16.4947 13.1402ZM18.6779 8.70276C17.9011 9.092 17.501 9.94291 17.5848 10.9387L20.872 9.28572C20.306 8.51085 19.5711 8.25377 18.6779 8.70276V8.70276ZM21.2814 12.2983C21.2798 12.2983 21.2798 12.3001 21.2798 12.3001L21.2116 12.2458C21.0147 12.6169 20.7092 12.9193 20.3231 13.1148C19.5881 13.4878 18.9074 13.3918 18.4174 12.8903L18.3725 12.97C18.3725 12.97 18.3725 12.9682 18.3709 12.9682L17.5367 14.4256C17.7445 14.5939 17.9662 14.7352 18.1988 14.8492C19.1198 15.2964 20.0626 15.2747 20.9914 14.804C21.6628 14.4636 22.19 13.9458 22.5497 13.2886L21.2814 12.2983ZM25.316 4.90625V13.0062L26.3952 13.5167L25.7827 15.186L24.5918 14.6066C24.3251 14.4708 24.1422 14.2644 24.0057 14.0309C23.8739 13.7937 23.7762 13.466 23.7762 13.0279V4.90625H25.316ZM28.1101 10.9441C28.1101 10.2543 28.3721 9.63514 28.7846 9.21511L27.6775 7.774C26.927 8.54887 26.4541 9.6804 26.4541 10.9405C26.4525 12.2023 26.9255 13.3357 27.6744 14.1106L28.7799 12.6694C28.369 12.2476 28.1101 11.6321 28.1101 10.9441V10.9441ZM30.0762 13.2415C29.8591 13.2415 29.6483 13.1981 29.4529 13.1221L28.9241 14.956C29.2854 15.0973 29.6715 15.1751 30.0747 15.1751C31.8268 15.1769 33.289 13.7249 33.6286 11.7968L32.0036 11.4094C31.8191 12.4576 31.0267 13.2434 30.0762 13.2415V13.2415ZM30.0809 6.71308C29.6793 6.71308 29.2932 6.78911 28.9319 6.92852L29.456 8.76431C29.6529 8.68827 29.8622 8.64663 30.0793 8.64663C31.0314 8.64844 31.8253 9.4378 32.0051 10.4879L33.6301 10.104C33.2968 8.17229 31.8346 6.71489 30.0809 6.71308V6.71308Z" fill="white"/>
</g>
<defs>
<clipPath id="clip0_2003_204">
<rect width="36.26" height="20" fill="white"/>
</clipPath>
</defs>
</svg>
